<svg height="512" viewBox="0 0 24 24" width="512" xmlns="http://www.w3.org/2000/svg"><g id="Flat" fill="#20bf55"><path d="m12 22.75a10.75 10.75 0 1 1 5.59-19.92.74.74 0 0 1 .25 1 .75.75 0 0 1 -1 .25 9.24 9.24 0 1 0 4.41 7.92 8.5 8.5 0 0 0 -.17-1.69.76.76 0 0 1 .59-.89.74.74 0 0 1 .88.59 10 10 0 0 1 .2 2 10.76 10.76 0 0 1 -10.75 10.74z"/><path d="m11.78 15.29a.74.74 0 0 1 -.53-.22l-4.4-4.4a.75.75 0 0 1 0-1.06.74.74 0 0 1 1.06 0l3.87 3.87 9.07-9.06a.74.74 0 0 1 1.06 0 .75.75 0 0 1 0 1.06l-9.6 9.59a.71.71 0 0 1 -.53.22z"/></g></svg>