<svg width="46" height="46" viewBox="0 0 46 46" fill="none" xmlns="http://www.w3.org/2000/svg">
<path opacity="0.1" d="M44.1943 22.6265C44.1943 34.5006 34.5685 44.1265 22.6943 44.1265C10.8202 44.1265 1.19434 34.5006 1.19434 22.6265C1.19434 10.7523 10.8202 1.12646 22.6943 1.12646C34.5685 1.12646 44.1943 10.7523 44.1943 22.6265Z" stroke="#2D727C" stroke-width="2"/>
<path d="M20.8934 29.5195L20.8729 23.2225H18.1943V20.5238H20.8729V18.7247C20.8729 16.2966 22.3653 15.1265 24.5152 15.1265C25.545 15.1265 26.4301 15.2037 26.688 15.2382V17.7757L25.197 17.7764C24.0278 17.7764 23.8014 18.3362 23.8014 19.1576V20.5238H27.1229L26.2301 23.2225H23.8014V29.5195H20.8934Z" fill="#2D727C"/>
</svg>
