<svg width="46" height="46" viewBox="0 0 46 46" fill="none" xmlns="http://www.w3.org/2000/svg">
<path opacity="0.1" d="M44.1943 22.6265C44.1943 34.5006 34.5685 44.1265 22.6943 44.1265C10.8202 44.1265 1.19434 34.5006 1.19434 22.6265C1.19434 10.7523 10.8202 1.12646 22.6943 1.12646C34.5685 1.12646 44.1943 10.7523 44.1943 22.6265Z" stroke="#2D727C" stroke-width="2"/>
<path d="M26.0622 20.0688C26.4929 20.0688 26.8422 19.7196 26.8422 19.2888C26.8422 18.858 26.4929 18.5088 26.0622 18.5088C25.6314 18.5088 25.2822 18.858 25.2822 19.2888C25.2822 19.7196 25.6314 20.0688 26.0622 20.0688Z" fill="#2D727C"/>
<path fill-rule="evenodd" clip-rule="evenodd" d="M19.4443 22.6265C19.4443 24.4188 20.902 25.8765 22.6943 25.8765C24.4867 25.8765 25.9443 24.4188 25.9443 22.6265C25.9443 20.8341 24.4867 19.3765 22.6943 19.3765C20.902 19.3765 19.4443 20.8341 19.4443 22.6265ZM21.0693 22.6265C21.0693 21.7303 21.7981 21.0015 22.6943 21.0015C23.5905 21.0015 24.3193 21.7303 24.3193 22.6265C24.3193 23.5227 23.5905 24.2515 22.6943 24.2515C21.7981 24.2515 21.0693 23.5227 21.0693 22.6265Z" fill="#2D727C"/>
<path fill-rule="evenodd" clip-rule="evenodd" d="M19.4443 29.1265H25.9443C27.6148 29.1265 29.1943 27.547 29.1943 25.8765V19.3765C29.1943 17.706 27.6148 16.1265 25.9443 16.1265H19.4443C17.7738 16.1265 16.1943 17.706 16.1943 19.3765V25.8765C16.1943 27.547 17.7738 29.1265 19.4443 29.1265ZM17.8193 19.3765C17.8193 18.6168 18.6846 17.7515 19.4443 17.7515H25.9443C26.704 17.7515 27.5693 18.6168 27.5693 19.3765V25.8765C27.5693 26.6362 26.704 27.5015 25.9443 27.5015H19.4443C18.67 27.5015 17.8193 26.6508 17.8193 25.8765V19.3765Z" fill="#2D727C"/>
</svg>
