<svg width="126" height="100" viewBox="0 0 126 100" fill="none" xmlns="http://www.w3.org/2000/svg">
<g clip-path="url(#clip0_1_731)">
<path d="M41.7146 37.5901C41.7708 35.6867 42.1074 33.8013 42.7142 31.9925C43.8193 28.7654 45.7238 25.858 48.2568 23.531C50.7898 21.2039 53.8722 19.5301 57.2272 18.6597C57.257 18.6518 57.8129 18.5363 57.8129 18.5271C57.1381 13.6519 55.068 9.06427 51.8427 5.2965C49.1174 2.57325 45.4057 1.0163 41.5158 0.9646H41.3494C37.4953 0.964465 33.7942 2.44354 31.0374 5.08554C28.7247 7.3339 27.1764 10.2281 26.6044 13.3724C26.0323 16.5168 26.4643 19.7577 27.8413 22.652C27.9496 22.9518 28.1566 23.2076 28.4297 23.3791C29.1438 23.7267 30.1407 21.8665 30.6587 21.4685C31.5945 20.7521 32.7476 20.3631 33.9346 20.3633C34.0902 20.3633 34.2484 20.3699 34.404 20.3832C35.652 20.5107 36.8185 21.0517 37.711 21.9168C38.6036 22.782 39.1689 23.9197 39.3138 25.1423V25.1941C39.5275 26.9547 38.2804 28.5389 37.5325 30.0514C33.9684 37.2584 36.3016 45.4592 42.2732 50.6269C44.4538 52.5166 46.9812 53.9818 49.7205 54.9442C48.7737 54.6152 47.6443 53.0072 47.0153 52.2682C46.1246 51.2275 45.3319 50.1097 44.647 48.9287C42.6293 45.4839 41.6149 41.5617 41.7146 37.5901V37.5901Z" fill="black"/>
<path d="M48.0325 37.9178C48.0325 37.9178 49.6312 39.7752 52.4229 38.0584C55.2146 36.3416 56.8864 31.7708 56.5225 30.2066C56.1587 28.6423 55.17 24.6859 52.0591 25.819C48.9482 26.952 46.1078 30.5449 46.3039 33.1056C46.5039 34.8167 47.0947 36.4616 48.0325 37.9178Z" fill="black"/>
<path d="M46.0618 44.9179C45.7163 44.6197 45.4755 44.2223 45.3735 43.7821C45.2715 43.342 45.3136 42.8814 45.4937 42.4661C45.8438 41.7896 46.3848 41.2261 47.0521 40.8427C47.7195 40.4593 48.4851 40.2721 49.2579 40.3034C50.1411 40.533 52.3796 41.1459 52.1199 42.8641C51.8602 44.5823 50.2453 46.112 48.844 45.9608C47.8544 45.8007 46.908 45.446 46.0618 44.9179V44.9179Z" fill="black"/>
<path d="M74.4211 55.9739C74.1052 55.5962 73.9189 55.1304 73.8885 54.6428C73.8581 54.1551 73.9854 53.6705 74.252 53.258C74.7467 52.5955 75.4251 52.0865 76.2064 51.7915C76.9877 51.4966 77.8389 51.4281 78.6587 51.5942C79.5609 51.9922 81.844 53.0297 81.2597 54.8209C80.6754 56.612 78.6776 57.9693 77.2088 57.566C76.1797 57.2248 75.2315 56.6833 74.4211 55.9739V55.9739Z" fill="black"/>
<path d="M54.1677 43.3259C53.5798 42.819 53.1699 42.143 52.9965 41.3943C52.8231 40.6455 52.895 39.8622 53.202 39.1559C53.7978 38.0049 54.7182 37.0462 55.8536 36.3937C56.989 35.7412 58.2916 35.4225 59.6064 35.4754C61.1078 35.8655 64.9193 36.9083 64.4757 39.8325C64.032 42.7567 61.2863 45.3598 58.9044 45.0998C57.2198 44.8277 55.6086 44.2243 54.1677 43.3259Z" fill="black"/>
<path d="M58.7786 53.6256C58.8723 53.179 59.1101 52.7739 59.4567 52.4702C59.8033 52.1665 60.2404 51.9803 60.7033 51.9393C61.4951 51.911 62.2791 52.1015 62.9659 52.489C63.6527 52.8766 64.2147 53.4455 64.5879 54.1311C64.8341 55.0041 65.4265 57.2344 63.7398 57.846C62.0532 58.4577 59.8431 57.8142 59.2628 56.5326C58.9017 55.6059 58.7369 54.6168 58.7786 53.6256V53.6256Z" fill="black"/>
<path d="M68.6159 19.5766C68.6987 19.1696 68.9263 18.8047 69.2581 18.5471C69.5898 18.2895 70.0041 18.1559 70.427 18.1702C71.2077 18.1788 71.9742 18.3764 72.6585 18.7453C73.3427 19.1142 73.9236 19.6431 74.3494 20.2851C74.6308 21.0692 75.3179 23.0713 73.6894 23.5384C72.8924 23.7695 72.0434 23.7632 71.2501 23.5201C70.4568 23.277 69.7551 22.8082 69.234 22.1731C68.8371 21.3623 68.6261 20.476 68.6159 19.5766V19.5766Z" fill="black"/>
<path d="M54.9035 49.9783C54.9035 49.9783 53.9202 49.3282 54.7236 47.8873C55.1592 47.2312 55.732 46.6733 56.404 46.2509C57.0761 45.8284 57.832 45.5509 58.6217 45.4368C59.4333 45.515 61.4621 45.7406 60.9657 47.2942C60.6989 48.0828 60.2308 48.7914 59.6061 49.3524C58.9813 49.9135 58.2206 50.3084 57.3963 50.4997C56.5355 50.5169 55.6823 50.3385 54.9035 49.9783V49.9783Z" fill="black"/>
<path d="M66.28 29.5857C66.28 29.5857 65.1222 29.339 65.3251 27.7084C65.4814 26.9406 65.8027 26.2144 66.2675 25.578C66.7323 24.9415 67.33 24.4095 68.0207 24.0173C68.7998 23.797 70.7786 23.2663 70.9017 24.8969C70.9511 25.7265 70.7836 26.5546 70.415 27.3028C70.0464 28.051 69.489 28.6943 68.7958 29.1718C68.0008 29.4979 67.1399 29.6396 66.28 29.5857V29.5857Z" fill="black"/>
<path d="M77.3291 15.81C77.3291 15.81 77.5009 16.4177 76.6528 16.7388C76.2377 16.8585 75.8013 16.8903 75.3727 16.8319C74.9441 16.7736 74.533 16.6265 74.1668 16.4004C73.8638 16.09 73.1051 15.2913 73.872 14.8229C74.2652 14.5901 74.7127 14.4599 75.1718 14.4448C75.6309 14.4297 76.0863 14.5302 76.4946 14.7367C76.8532 15.0267 77.1388 15.394 77.3291 15.81V15.81Z" fill="black"/>
<path d="M71.8174 41.6011C71.8627 41.9028 71.8083 42.2109 71.6623 42.4802C71.5163 42.7495 71.2863 42.9659 71.0059 43.0977C70.5156 43.2934 69.979 43.3493 69.4578 43.2589C68.9366 43.1686 68.4521 42.9356 68.06 42.5869C67.7042 42.0894 66.8142 40.8143 67.7313 40.0475C68.1521 39.6753 68.6897 39.455 69.2553 39.4232C69.821 39.3914 70.3808 39.5498 70.8422 39.8723C71.2837 40.3776 71.6155 40.9658 71.8174 41.6011Z" fill="black"/>
<path d="M80.3562 32.181C80.3562 32.181 80.6064 32.9346 79.3891 33.3206C78.1849 33.6163 76.9117 33.4606 75.8183 32.8841C75.3801 32.4981 74.2858 31.5043 75.3841 30.9272C75.9656 30.6403 76.6046 30.4834 77.2552 30.4678C77.9059 30.4522 78.5519 30.5783 79.147 30.8369C79.6536 31.1839 80.0682 31.6447 80.3562 32.181Z" fill="black"/>
<path d="M64.9152 49.3786C65.0736 49.1161 65.3134 48.9101 65.5995 48.7908C65.8857 48.6715 66.2033 48.645 66.5059 48.7152C67.0133 48.8629 67.4679 49.148 67.8175 49.5379C68.1671 49.9277 68.3974 50.4065 68.482 50.919C68.4441 51.5253 68.3251 53.067 67.1213 53.1028C66.5548 53.1366 65.9937 52.9793 65.5309 52.6571C65.0681 52.335 64.7316 51.8672 64.5771 51.3316C64.553 50.6648 64.6681 50.0002 64.9152 49.3786Z" fill="black"/>
<path d="M65.7105 20.8491C65.8336 20.6411 66.0214 20.4773 66.2463 20.3818C66.4713 20.2863 66.7215 20.264 66.9603 20.3184C67.3586 20.4346 67.7154 20.6587 67.9896 20.965C68.2638 21.2713 68.4443 21.6473 68.5104 22.0498C68.4806 22.5261 68.3886 23.7361 67.4432 23.764C66.9985 23.7905 66.5578 23.6671 66.1945 23.4142C65.8311 23.1612 65.5668 22.7941 65.4454 22.3735C65.4277 21.853 65.5179 21.3344 65.7105 20.8491V20.8491Z" fill="black"/>
<path d="M69.7588 11.1729C69.7588 11.1729 70.1294 11.3932 69.8683 11.9292C69.7245 12.1747 69.5286 12.3871 69.2939 12.5519C69.0591 12.7167 68.791 12.8301 68.5077 12.8844C68.2142 12.8685 67.4702 12.8208 67.619 12.2463C67.6989 11.9562 67.8536 11.6913 68.0682 11.477C68.2829 11.2627 68.5502 11.1064 68.8444 11.023C69.1569 11.0031 69.4699 11.0544 69.7588 11.1729V11.1729Z" fill="black"/>
<path d="M75.0852 17.7842C75.2084 17.5764 75.3962 17.4127 75.6211 17.3172C75.846 17.2217 76.0962 17.1994 76.335 17.2535C76.7335 17.3696 77.0905 17.5937 77.3649 17.9C77.6394 18.2063 77.8201 18.5824 77.8864 18.9849C77.8566 19.4612 77.7646 20.6713 76.8178 20.7004C76.3732 20.7266 75.9327 20.6028 75.5696 20.3496C75.2065 20.0965 74.9425 19.7292 74.8215 19.3087C74.803 18.7882 74.8927 18.2695 75.0852 17.7842V17.7842Z" fill="black"/>
<path d="M89.436 17.0557C89.436 17.0557 89.1749 17.6408 88.2335 17.2375C87.3492 16.7861 86.6696 16.0258 86.3291 15.1067C86.2777 14.645 86.1641 13.4721 87.1407 13.699C87.6462 13.8298 88.1156 14.0695 88.5148 14.4007C88.9139 14.7319 89.2328 15.1462 89.4481 15.6135C89.5611 16.0884 89.557 16.5828 89.436 17.0557V17.0557Z" fill="black"/>
<path d="M81.6871 19.0844C81.6871 19.0844 81.4031 19.6509 80.555 19.3338C80.1647 19.152 79.8181 18.8911 79.5383 18.5681C79.2585 18.2451 79.0518 17.8676 78.9319 17.4604C78.9157 17.0305 78.8886 15.9399 79.78 16.0885C80.2313 16.1712 80.6535 16.3656 81.0067 16.6533C81.3599 16.941 81.6323 17.3124 81.798 17.7324C81.8679 18.1854 81.83 18.6481 81.6871 19.0844V19.0844Z" fill="black"/>
<path d="M70.289 53.144C70.289 53.144 68.8012 53.1719 69.0541 50.5581C69.4459 48.0228 70.6435 45.6734 72.4761 43.8447C73.4689 43.2251 75.9928 41.6927 76.1645 44.191C76.3363 46.6893 75.023 50.3472 73.5013 51.6036C72.5727 52.3635 71.4707 52.892 70.289 53.144V53.144Z" fill="black"/>
<path d="M60.5573 21.2523C60.5573 21.2523 59.1952 20.6778 60.5194 18.3971C61.9437 16.2472 64.0229 14.5925 66.4612 13.6685C67.6271 13.5053 70.573 13.1378 69.6763 15.4769C68.7795 17.816 66.0446 20.6208 64.1307 21.1502C62.9654 21.4664 61.7394 21.5014 60.5573 21.2523V21.2523Z" fill="black"/>
<path d="M70.0509 57.6417C70.0509 57.6417 69.7317 57.2941 70.7069 56.8562C71.6847 56.4673 72.7419 56.3087 73.7935 56.3932C74.2196 56.5113 75.2894 56.8204 74.4414 57.3352C73.4779 57.8798 72.3782 58.1486 71.2669 58.1114C70.8302 58.0483 70.4142 57.8876 70.0509 57.6417V57.6417Z" fill="black"/>
<path d="M63.771 31.4778C63.9706 31.8323 64.0512 32.2397 64.0012 32.6418C63.9511 33.0439 63.7731 33.4203 63.4923 33.7173C62.9871 34.1845 62.3557 34.4994 61.6733 34.6245C60.9908 34.7497 60.286 34.6798 59.6429 34.4232C58.9666 33.9681 57.2665 32.7833 58.0198 31.4088C58.35 30.754 58.9021 30.2323 59.5815 29.9331C60.2609 29.6339 61.0252 29.5758 61.7435 29.7689C62.5298 30.1987 63.2194 30.7799 63.771 31.4778V31.4778Z" fill="black"/>
<path d="M76.7286 27.0198C76.9283 27.3744 77.0088 27.7818 76.9588 28.1839C76.9088 28.586 76.7307 28.9623 76.4499 29.2594C75.9451 29.7267 75.314 30.0418 74.6317 30.1671C73.9495 30.2925 73.2449 30.2229 72.6019 29.9666C71.9256 29.5102 70.2241 28.3254 70.9788 26.9508C71.3092 26.296 71.8616 25.7742 72.5412 25.475C73.2208 25.1758 73.9853 25.1178 74.7038 25.311C75.489 25.7412 76.1777 26.3224 76.7286 27.0198V27.0198Z" fill="black"/>
<path d="M82.4932 8.64678C82.6929 9.00137 82.7735 9.40871 82.7234 9.81081C82.6734 10.2129 82.4954 10.5893 82.2146 10.8864C81.7098 11.3536 81.0786 11.6687 80.3964 11.7941C79.7142 11.9195 79.0096 11.8499 78.3665 11.5935C77.6903 11.1371 75.9887 9.95233 76.7435 8.57779C77.0739 7.9229 77.6262 7.40114 78.3058 7.10195C78.9855 6.80276 79.75 6.74476 80.4684 6.9379C81.2537 7.36813 81.9423 7.94935 82.4932 8.64678Z" fill="black"/>
<path d="M66.2056 41.9645C66.2056 41.9645 67.362 41.8981 67.5298 43.6057C67.5701 45.2664 66.9379 46.8752 65.7714 48.0796C65.0803 48.5147 63.3125 49.5907 62.835 47.9721C62.6062 47.1295 62.5831 46.246 62.7676 45.3931C62.9521 44.5401 63.3389 43.7419 63.8968 43.063C64.5674 42.5235 65.3585 42.147 66.2056 41.9645V41.9645Z" fill="black"/>
<path d="M64.3242 22.6666C64.3242 22.6666 65.4806 22.6003 65.6483 24.3078C65.6887 25.9686 65.0564 27.5773 63.89 28.7817C63.1988 29.2169 61.431 30.2929 60.9536 28.6742C60.7245 27.8318 60.7011 26.9483 60.8854 26.0953C61.0696 25.2424 61.4563 24.4441 62.014 23.7652C62.685 23.2255 63.4766 22.849 64.3242 22.6666V22.6666Z" fill="black"/>
<path d="M89.9364 32.9041C90.1114 33.4376 90.0812 34.0155 89.8518 34.5288C89.6223 35.042 89.2093 35.4552 88.6907 35.6903C86.8106 36.5435 82.7624 36.4864 82.0023 35.8708C81.2421 35.2551 80.06 32.6985 81.7196 31.5322C83.3792 30.366 86.1587 30.8012 87.7601 30.7959C89.5049 30.7932 89.9364 32.9041 89.9364 32.9041Z" fill="black"/>
<path d="M67.8151 1.52325C67.8089 1.14316 67.9526 0.775388 68.2162 0.496756C68.4799 0.218125 68.8431 0.0501771 69.2299 0.0279855C70.3248 -0.0502921 71.4254 0.0103577 72.5045 0.208428C73.5961 0.585527 74.5885 1.19621 75.4096 1.99619C76.2308 2.79616 76.8601 3.76538 77.252 4.83355C77.3264 5.7928 75.8873 7.14079 73.8814 6.76664C71.9015 6.35216 70.0783 5.40535 68.6159 4.03218C68.0484 3.31841 67.7639 2.42704 67.8151 1.52325V1.52325Z" fill="black"/>
<path d="M64.312 34.1033C64.312 34.1033 64.6501 33.7199 65.2791 34.5478C65.8536 35.3891 66.1868 36.3666 66.2435 37.3778C66.1745 37.8103 65.9865 38.8983 65.2899 38.2097C64.5487 37.4259 64.0839 36.4291 63.9644 35.3664C63.9764 34.9243 64.0956 34.4913 64.312 34.1033V34.1033Z" fill="black"/>
<path d="M77.8228 28.2205C77.8228 28.2205 77.9053 27.7203 78.8846 28.0984C79.8254 28.5161 80.6342 29.1747 81.2259 30.005C81.399 30.403 81.8237 31.4299 80.862 31.199C79.8107 30.9168 78.8801 30.3096 78.2083 29.4676C77.9811 29.0876 77.849 28.6602 77.8228 28.2205V28.2205Z" fill="black"/>
<path d="M70.2863 10.0001C70.2863 10.0001 70.3688 9.49858 71.3481 9.87671C72.2884 10.2952 73.0967 10.9542 73.688 11.7846C73.8611 12.1826 74.2859 13.2096 73.3242 12.9787C72.2732 12.6956 71.3428 12.0886 70.6704 11.2473C70.4437 10.8672 70.3121 10.4398 70.2863 10.0001V10.0001Z" fill="black"/>
<path d="M68.463 5.58592C68.463 5.58592 68.5455 5.08574 69.5248 5.46387C70.4653 5.88153 71.2736 6.54015 71.8647 7.37043C72.0379 7.76846 72.4626 8.79539 71.5009 8.56453C70.4497 8.28199 69.5192 7.67487 68.8472 6.83309C68.6204 6.45299 68.4888 6.02558 68.463 5.58592V5.58592Z" fill="black"/>
<path d="M82.1943 11.4978C82.1943 11.4978 82.2768 10.9976 83.2561 11.3757C84.1966 11.7935 85.0049 12.4521 85.596 13.2823C85.7692 13.6803 86.1939 14.7073 85.2335 14.4764C84.1818 14.1942 83.2508 13.587 82.5785 12.745C82.3514 12.365 82.2198 11.9375 82.1943 11.4978V11.4978Z" fill="black"/>
<path d="M51.8197 53.1333C51.8197 53.1333 51.9143 52.6345 52.8841 53.0352C53.8165 53.474 54.6108 54.1515 55.1835 54.9961C55.3472 55.4034 55.7475 56.4343 54.7912 56.1902C53.7471 55.8831 52.8314 55.2547 52.1794 54.3977C51.9588 54.0103 51.8355 53.5768 51.8197 53.1333V53.1333Z" fill="black"/>
<path d="M69.5113 44.0687C69.5113 44.0687 70.0212 43.9905 69.959 45.0214C69.8452 46.0278 69.4575 46.9856 68.8363 47.7943C68.4982 48.0822 67.6407 48.7947 67.5609 47.8275C67.509 46.7596 67.8087 45.7037 68.4157 44.8157C68.7155 44.4852 69.091 44.2292 69.5113 44.0687V44.0687Z" fill="black"/>
<path d="M83.5672 21.4341C83.5672 21.4341 83.7565 21.9065 82.7164 22.0697C81.6901 22.1801 80.6524 22.0174 79.7123 21.5986C79.3539 21.3333 78.4585 20.6699 79.4026 20.3847C80.4538 20.102 81.5698 20.1593 82.5852 20.5478C82.9796 20.7626 83.3162 21.0664 83.5672 21.4341Z" fill="black"/>
<path d="M72.9346 37.8702C72.9346 37.8702 72.9103 39.0072 71.1614 39.0338C69.4714 38.9426 67.8872 38.1978 66.7561 36.9627C66.3693 36.2516 65.4157 34.4418 67.0983 34.0995C67.972 33.9439 68.8708 33.9923 69.7219 34.2407C70.573 34.4892 71.3525 34.9308 71.9973 35.5298C72.4936 36.2265 72.8148 37.0285 72.9346 37.8702V37.8702Z" fill="black"/>
<path d="M53.9243 49.1914C54.0778 49.5673 54.1064 49.9812 54.0061 50.374C53.9058 50.7669 53.6817 51.1186 53.3656 51.3792C52.8056 51.7819 52.1394 52.0181 51.4463 52.0598C50.7533 52.1014 50.0626 51.9467 49.4567 51.6141C48.8454 51.0834 47.3048 49.6982 48.2245 48.4298C48.6347 47.82 49.2484 47.3691 49.9603 47.1544C50.6722 46.9397 51.4381 46.9745 52.1267 47.253C52.8525 47.7741 53.4639 48.4334 53.9243 49.1914V49.1914Z" fill="black"/>
<path d="M87.982 18.3029C88.1355 18.6789 88.1643 19.0928 88.0643 19.4858C87.9642 19.8789 87.7404 20.2309 87.4247 20.492C86.8645 20.8944 86.1984 21.1304 85.5054 21.1721C84.8124 21.2137 84.1218 21.0592 83.5158 20.7269C82.9031 20.1962 81.3638 18.8097 82.2836 17.5426C82.6938 16.9328 83.3075 16.4821 84.0195 16.2676C84.7315 16.0531 85.4973 16.0883 86.1857 16.3671C86.9113 16.887 87.5223 17.5455 87.982 18.3029V18.3029Z" fill="black"/>
<path d="M56.4779 25.9373C56.0692 25.8784 55.6899 25.6944 55.3941 25.4116C55.0983 25.1288 54.901 24.7616 54.8305 24.3624C54.7576 23.6851 54.8845 23.0016 55.1962 22.3931C55.508 21.7846 55.9913 21.2768 56.5888 20.93C57.3679 20.6806 59.3602 20.069 60.0189 21.4886C60.3504 22.143 60.4393 22.8902 60.2705 23.6019C60.1017 24.3137 59.6857 24.9456 59.0938 25.3893C58.2684 25.743 57.3786 25.9294 56.4779 25.9373Z" fill="black"/>
<path d="M45.468 37.3659C45.6403 37.2191 45.8556 37.1295 46.083 37.11C46.3104 37.0905 46.5382 37.142 46.734 37.2571C47.0495 37.4718 47.2955 37.7709 47.4427 38.1188C47.5899 38.4666 47.6322 38.8487 47.5645 39.2194C47.39 39.6294 46.9315 40.6683 46.0875 40.4268C45.6885 40.3265 45.3375 40.0932 45.0947 39.7669C44.8519 39.4406 44.7323 39.0416 44.7565 38.6383C44.9043 38.1717 45.1463 37.739 45.468 37.3659V37.3659Z" fill="black"/>
<path d="M52.9058 44.2546C53.0782 44.1075 53.2938 44.0177 53.5214 43.9982C53.7491 43.9786 53.9772 44.0303 54.1731 44.1458C54.4886 44.3605 54.7346 44.6595 54.8818 45.0074C55.0291 45.3553 55.0713 45.7373 55.0036 46.1081C54.8291 46.518 54.3706 47.5569 53.5266 47.3154C53.1274 47.2156 52.7761 46.9824 52.5332 46.656C52.2903 46.3296 52.171 45.9303 52.1957 45.5269C52.3422 45.0601 52.5838 44.6272 52.9058 44.2546Z" fill="black"/>
<path d="M70.9856 14.6569C71.158 14.5098 71.3735 14.4201 71.6012 14.4005C71.8289 14.381 72.057 14.4327 72.2529 14.5481C72.5684 14.7628 72.8144 15.0619 72.9616 15.4098C73.1089 15.7576 73.1511 16.1397 73.0834 16.5104C72.9089 16.9204 72.4504 17.9593 71.6064 17.7178C71.2074 17.6175 70.8565 17.3842 70.6137 17.0579C70.3708 16.7316 70.2513 16.3326 70.2755 15.9293C70.422 15.4624 70.6636 15.0296 70.9856 14.6569V14.6569Z" fill="black"/>
<path d="M66.2313 54.0421C66.4039 53.8952 66.6195 53.8057 66.8472 53.7864C67.0748 53.7671 67.3029 53.819 67.4986 53.9346C67.8138 54.1493 68.0594 54.4482 68.2064 54.7958C68.3534 55.1435 68.3955 55.5252 68.3278 55.8956C68.1533 56.3069 67.6948 57.3458 66.8508 57.103C66.4518 57.0027 66.1008 56.7694 65.858 56.4431C65.6152 56.1168 65.4956 55.7178 65.5198 55.3145C65.6676 54.8478 65.9096 54.4151 66.2313 54.0421Z" fill="black"/>
<path d="M57.5803 26.9204C57.7527 26.7733 57.9682 26.6835 58.1959 26.664C58.4236 26.6444 58.6517 26.6961 58.8476 26.8116C59.1629 27.0264 59.4086 27.3256 59.5555 27.6734C59.7025 28.0213 59.7446 28.4032 59.6767 28.7739C59.5023 29.1838 59.0437 30.2227 58.1997 29.9812C57.8007 29.8806 57.4497 29.6471 57.2069 29.3206C56.9641 28.994 56.8446 28.5949 56.8688 28.1914C57.0164 27.7251 57.2584 27.2928 57.5803 26.9204V26.9204Z" fill="black"/>
<path d="M78.1082 12.5446C78.2807 12.3975 78.4962 12.3078 78.7239 12.2882C78.9515 12.2687 79.1797 12.3204 79.3756 12.4358C79.6912 12.6504 79.9373 12.9495 80.0845 13.2974C80.2317 13.6453 80.2739 14.0274 80.206 14.3981C80.0316 14.8081 79.573 15.847 78.729 15.6042C78.3297 15.5045 77.9783 15.2714 77.7353 14.945C77.4924 14.6185 77.3731 14.2191 77.3981 13.8157C77.5449 13.3493 77.7865 12.9169 78.1082 12.5446V12.5446Z" fill="black"/>
<path d="M56.5009 50.9999C56.7536 50.9272 57.0216 50.9231 57.2765 50.988C57.5314 51.053 57.7635 51.1845 57.9481 51.3687C58.1799 51.6831 58.2956 52.0656 58.2762 52.4532C58.2568 52.8407 58.1034 53.2102 57.8413 53.5008C57.4355 53.8179 56.3954 54.614 55.5947 54.0753C55.4098 53.9733 55.2483 53.835 55.1202 53.6691C54.9922 53.5032 54.9003 53.3132 54.8503 53.111C54.8003 52.9088 54.7933 52.6986 54.8296 52.4936C54.866 52.2886 54.945 52.0931 55.0617 51.9193C55.4817 51.531 55.9691 51.2196 56.5009 50.9999Z" fill="black"/>
<path d="M74.1668 7.37025C74.4193 7.29751 74.6872 7.29341 74.9418 7.35837C75.1965 7.42333 75.4284 7.55493 75.6127 7.7391C75.8445 8.05352 75.9602 8.436 75.9408 8.82355C75.9214 9.21111 75.768 9.58062 75.5059 9.87122C75.1001 10.1883 74.06 10.9844 73.2593 10.4457C73.0745 10.3436 72.9131 10.2052 72.7852 10.0393C72.6572 9.8733 72.5655 9.6833 72.5156 9.48107C72.4658 9.27884 72.4589 9.06871 72.4954 8.86375C72.5318 8.65879 72.6109 8.4634 72.7277 8.28971C73.1474 7.90112 73.6348 7.58969 74.1668 7.37025V7.37025Z" fill="black"/>
<path d="M75.2421 10.8717C75.4147 10.7248 75.6303 10.6353 75.858 10.616C76.0857 10.5967 76.3137 10.6486 76.5095 10.7642C76.825 10.9786 77.071 11.2775 77.2182 11.6251C77.3655 11.9728 77.4077 12.3547 77.3399 12.7252C77.1655 13.1365 76.7069 14.1754 75.8629 13.9326C75.4639 13.8325 75.1127 13.5993 74.8699 13.2729C74.627 12.9466 74.5075 12.5474 74.532 12.1441C74.679 11.6774 74.9205 11.2446 75.2421 10.8717V10.8717Z" fill="black"/>
<path d="M76.3986 49.5191C76.3765 49.3269 76.417 49.1329 76.5141 48.9646C76.6113 48.7964 76.7602 48.6626 76.9396 48.5824C77.2486 48.4669 77.585 48.4409 77.9087 48.5075C78.2324 48.574 78.5298 48.7304 78.7656 48.9579C78.9779 49.2803 79.5068 50.1055 78.9211 50.5765C78.6541 50.8056 78.3143 50.9365 77.9597 50.9469C77.6052 50.9574 77.2579 50.8466 76.9775 50.6336C76.7099 50.3041 76.513 49.925 76.3986 49.5191V49.5191Z" fill="black"/>
<path d="M56.6808 33.0977C56.8099 32.9883 56.9709 32.9216 57.1409 32.9071C57.3108 32.8925 57.4811 32.9309 57.6276 33.0167C57.8633 33.1771 58.047 33.4006 58.1568 33.6606C58.2667 33.9205 58.298 34.2059 58.2471 34.4828C58.1118 34.7893 57.7737 35.5655 57.1434 35.385C56.8455 35.3099 56.5835 35.1356 56.4021 34.8919C56.2208 34.6481 56.1314 34.3502 56.1492 34.049C56.2595 33.7001 56.4403 33.3766 56.6808 33.0977Z" fill="black"/>
<path d="M56.8174 55.1659C56.9464 55.0562 57.1073 54.9893 57.2773 54.9745C57.4472 54.9598 57.6176 54.9979 57.7642 55.0836C57.9999 55.244 58.1836 55.4675 58.2934 55.7274C58.4033 55.9873 58.4346 56.2728 58.3837 56.5497C58.2484 56.8562 57.9116 57.6323 57.2813 57.4519C56.9832 57.3772 56.7209 57.203 56.5394 56.9591C56.358 56.7153 56.2688 56.4171 56.2872 56.1158C56.3965 55.7672 56.5769 55.444 56.8174 55.1659Z" fill="black"/>
<path d="M79.1199 33.8912C79.249 33.7818 79.41 33.715 79.58 33.7005C79.75 33.686 79.9203 33.7244 80.0667 33.8102C80.3013 33.9701 80.4842 34.1925 80.594 34.4511C80.7037 34.7097 80.7357 34.9938 80.6862 35.2697C80.551 35.5762 80.2142 36.3523 79.5825 36.1719C79.2846 36.0967 79.0226 35.9224 78.8413 35.6787C78.6599 35.435 78.5705 35.137 78.5884 34.8358C78.6995 34.4893 78.8802 34.1681 79.1199 33.8912Z" fill="black"/>
<path d="M65.5591 39.2313C65.6785 39.1322 65.8241 39.0684 65.979 39.0473C66.1339 39.0261 66.2917 39.0486 66.4342 39.1119C66.641 39.2372 66.8007 39.425 66.8893 39.6471C66.9779 39.8692 66.9905 40.1135 66.9252 40.3432C66.7899 40.6085 66.4301 41.3011 65.8607 41.179C65.2913 41.057 64.8733 40.5157 65.018 40.0791C65.1431 39.766 65.3266 39.4785 65.5591 39.2313V39.2313Z" fill="black"/>
<path d="M65.014 31.3184C65.1336 31.2192 65.2794 31.1553 65.4346 31.1342C65.5897 31.113 65.7478 31.1355 65.8904 31.199C66.0969 31.3246 66.2562 31.5126 66.3445 31.7346C66.4328 31.9566 66.4453 32.2007 66.3801 32.4303C66.2448 32.6956 65.8864 33.3882 65.3156 33.2661C64.7448 33.144 64.3282 32.6027 64.4729 32.1662C64.598 31.8531 64.7815 31.5656 65.014 31.3184Z" fill="black"/>
<path d="M74.6578 39.7343C74.7772 39.6333 74.9236 39.5681 75.0797 39.5462C75.2357 39.5244 75.3949 39.5468 75.5383 39.6109C75.7453 39.7364 75.9051 39.9245 75.9936 40.1468C76.0822 40.3691 76.0947 40.6136 76.0293 40.8435C75.8941 41.1088 75.5343 41.8014 74.9648 41.6793C74.3954 41.5573 73.9775 41.0159 74.1222 40.5781C74.2458 40.2667 74.4274 39.9805 74.6578 39.7343V39.7343Z" fill="black"/>
<path d="M61.6894 49.3295C61.8086 49.2301 61.9542 49.1661 62.1092 49.1449C62.2642 49.1238 62.4221 49.1464 62.5645 49.21C62.7712 49.3355 62.9308 49.5233 63.0193 49.7454C63.1078 49.9674 63.1205 50.2116 63.0554 50.4413C62.9202 50.7066 62.5604 51.3992 61.9896 51.2771C61.4188 51.1551 61.0036 50.6138 61.1483 50.1773C61.2734 49.8641 61.4569 49.5766 61.6894 49.3295Z" fill="black"/>
<path d="M74.4563 24.0876C74.4499 23.9342 74.4881 23.7822 74.5664 23.6492C74.6447 23.5163 74.7599 23.4079 74.8985 23.3367C75.1263 23.2537 75.3753 23.2455 75.6082 23.3132C75.8411 23.3809 76.0453 23.5209 76.1903 23.7121C76.3255 23.9841 76.6583 24.6833 76.2092 25.0495C76.0197 25.2281 75.7659 25.326 75.5032 25.3218C75.2404 25.3175 74.99 25.2116 74.8066 25.027C74.6316 24.7378 74.5128 24.4193 74.4563 24.0876Z" fill="black"/>
<path d="M83.1492 10.1445C83.1428 9.99123 83.1808 9.8393 83.2588 9.70637C83.3369 9.57344 83.4518 9.46497 83.5902 9.39354C83.8179 9.31062 84.0669 9.30239 84.2998 9.37009C84.5327 9.43779 84.737 9.57777 84.8819 9.76902C85.0171 10.0423 85.3499 10.7402 84.9008 11.1077C84.7112 11.2858 84.4576 11.3831 84.1952 11.3786C83.9328 11.3742 83.6827 11.2682 83.4996 11.0839C83.3239 10.795 83.2051 10.4764 83.1492 10.1445Z" fill="black"/>
<path d="M50.8458 40.188C50.7809 40.1203 50.7394 40.0342 50.7273 39.942C50.7151 39.8498 50.733 39.7562 50.7782 39.6745C50.8632 39.5433 50.9849 39.4387 51.1288 39.3733C51.2727 39.308 51.4327 39.2845 51.5897 39.3057C51.7656 39.3694 52.2119 39.5379 52.124 39.8855C52.0882 40.0491 51.9955 40.1954 51.8617 40.2993C51.7279 40.4031 51.5615 40.4581 51.3909 40.4547C51.1927 40.4027 51.0073 40.312 50.8458 40.188V40.188Z" fill="black"/>
<path d="M71.7944 40.5755C71.7298 40.5078 71.6887 40.4219 71.6768 40.3299C71.6649 40.238 71.6828 40.1447 71.7281 40.0633C71.8131 39.9319 71.9348 39.8272 72.0786 39.7616C72.2225 39.696 72.3825 39.6723 72.5397 39.6932C72.7155 39.7569 73.1619 39.9267 73.0739 40.273C73.0382 40.4367 72.9455 40.5832 72.8118 40.6873C72.678 40.7913 72.5115 40.8466 72.3409 40.8435C72.1422 40.7912 71.9563 40.7 71.7944 40.5755Z" fill="black"/>
<path d="M69.7006 29.9081C69.6361 29.8404 69.5949 29.7545 69.583 29.6626C69.5711 29.5706 69.5891 29.4773 69.6344 29.396C69.7192 29.2645 69.8409 29.1596 69.9847 29.094C70.1286 29.0284 70.2887 29.0047 70.4459 29.0258C70.6217 29.0895 71.0681 29.2593 70.9788 29.6056C70.9433 29.7695 70.8507 29.9161 70.7169 30.0202C70.5831 30.1243 70.4165 30.1795 70.2457 30.1761C70.0475 30.1236 69.8622 30.0324 69.7006 29.9081V29.9081Z" fill="black"/>
<path d="M46.6461 47.2742C46.5815 47.2065 46.5404 47.1206 46.5285 47.0287C46.5166 46.9367 46.5345 46.8434 46.5798 46.7621C46.6648 46.6307 46.7864 46.526 46.9303 46.4604C47.0741 46.3947 47.2342 46.371 47.3914 46.3919C47.5672 46.4556 48.0135 46.6254 47.9243 46.9717C47.8888 47.1353 47.7964 47.2818 47.6629 47.3859C47.5293 47.49 47.363 47.5453 47.1925 47.5422C46.9938 47.4899 46.808 47.3987 46.6461 47.2742V47.2742Z" fill="black"/>
<path d="M79.3999 51.7255C79.3097 51.631 79.2521 51.5111 79.2354 51.3827C79.2186 51.2543 79.2435 51.124 79.3066 51.0104C79.4261 50.8267 79.5967 50.6804 79.7983 50.5889C79.9999 50.4975 80.224 50.4646 80.4441 50.4942C80.6903 50.5831 81.3124 50.8193 81.1894 51.3036C81.1392 51.5321 81.0097 51.7365 80.8229 51.8817C80.6362 52.0269 80.4038 52.1039 80.1655 52.0996C79.8874 52.0264 79.627 51.8992 79.3999 51.7255V51.7255Z" fill="black"/>
<path d="M50.2656 46.4372C50.2157 46.3844 50.1838 46.3178 50.1744 46.2464C50.1649 46.1751 50.1784 46.1026 50.2128 46.0391C50.2797 45.9355 50.3756 45.853 50.4891 45.8015C50.6026 45.75 50.7287 45.7316 50.8526 45.7486C50.9878 45.799 51.3409 45.9317 51.2719 46.2037C51.2436 46.3322 51.1707 46.4471 51.0656 46.5287C50.9605 46.6103 50.8297 46.6534 50.6957 46.6508C50.539 46.609 50.3926 46.5363 50.2656 46.4372Z" fill="black"/>
<path d="M55.6691 45.6782C55.6196 45.6252 55.5881 45.5585 55.5789 45.4872C55.5697 45.4159 55.5833 45.3436 55.6177 45.2802C55.6847 45.1771 55.7804 45.095 55.8936 45.0437C56.0068 44.9924 56.1326 44.9741 56.2561 44.991C56.3913 45.0414 56.7444 45.1741 56.6754 45.446C56.6474 45.5745 56.5748 45.6893 56.4699 45.7709C56.365 45.8525 56.2344 45.8957 56.1005 45.8932C55.9435 45.8506 55.7968 45.7775 55.6691 45.6782V45.6782Z" fill="black"/>
<path d="M72.4761 42.8456C72.4262 42.7929 72.3944 42.7262 72.3849 42.6549C72.3755 42.5835 72.3889 42.5111 72.4234 42.4476C72.4903 42.344 72.5862 42.2615 72.6996 42.2099C72.8131 42.1584 72.9393 42.14 73.0631 42.157C73.1984 42.2075 73.5514 42.3401 73.4811 42.6121C73.4534 42.7407 73.3808 42.8557 73.2758 42.9373C73.1709 43.019 73.0401 43.0621 72.9062 43.0592C72.7495 43.0174 72.6032 42.9448 72.4761 42.8456V42.8456Z" fill="black"/>
<path d="M53.0032 24.5348C52.9533 24.4821 52.9215 24.4154 52.912 24.3441C52.9025 24.2728 52.916 24.2003 52.9504 24.1368C53.0173 24.0332 53.1132 23.9507 53.2267 23.8992C53.3401 23.8476 53.4663 23.8292 53.5902 23.8462C53.7254 23.8967 54.0784 24.0293 54.0095 24.3013C53.9812 24.4299 53.9083 24.5448 53.8032 24.6263C53.6981 24.7079 53.5673 24.7511 53.4333 24.7484C53.2766 24.7067 53.1302 24.634 53.0032 24.5348V24.5348Z" fill="black"/>
<path d="M59.4238 26.3431C59.3738 26.2904 59.342 26.2236 59.3327 26.1522C59.3235 26.0808 59.3374 26.0084 59.3724 25.9451C59.4391 25.8416 59.5348 25.7591 59.648 25.7076C59.7612 25.6561 59.8872 25.6376 60.0108 25.6545C60.1461 25.7049 60.4991 25.8376 60.4301 26.1096C60.4022 26.238 60.3295 26.3529 60.2246 26.4345C60.1197 26.5161 59.9891 26.5593 59.8553 26.5567C59.6981 26.5152 59.5512 26.4425 59.4238 26.3431V26.3431Z" fill="black"/>
<path d="M76.8422 29.8419C76.7925 29.789 76.7608 29.7224 76.7513 29.6511C76.7419 29.5798 76.7552 29.5074 76.7895 29.4438C76.8567 29.3406 76.9527 29.2584 77.0661 29.2072C77.1795 29.1559 77.3055 29.1376 77.4292 29.1546C77.5645 29.205 77.9175 29.3377 77.8472 29.6097C77.8192 29.7381 77.7466 29.853 77.6417 29.9346C77.5368 30.0162 77.4062 30.0594 77.2723 30.0568C77.1158 30.014 76.9695 29.941 76.8422 29.8419V29.8419Z" fill="black"/>
<path d="M84.1136 15.5154C84.064 15.4625 84.0322 15.3959 84.0228 15.3246C84.0133 15.2533 84.0266 15.1809 84.0609 15.1174C84.1278 15.0142 84.2236 14.9321 84.3368 14.8808C84.45 14.8296 84.5758 14.8113 84.6993 14.8281C84.8345 14.8785 85.1876 15.0112 85.1186 15.2832C85.0906 15.4116 85.018 15.5265 84.9131 15.6081C84.8082 15.6897 84.6776 15.7329 84.5437 15.7303C84.3868 15.6885 84.2404 15.6153 84.1136 15.5154V15.5154Z" fill="black"/>
<path d="M78.5235 19.6748C78.4738 19.6219 78.442 19.5552 78.4326 19.484C78.4232 19.4127 78.4365 19.3403 78.4707 19.2767C78.538 19.1736 78.6341 19.0915 78.7474 19.0403C78.8608 18.989 78.9868 18.9707 79.1105 18.9875C79.2457 19.0379 79.5988 19.1706 79.5298 19.4426C79.5018 19.5712 79.4289 19.6863 79.3237 19.7679C79.2186 19.8495 79.0876 19.8926 78.9536 19.8897C78.797 19.8469 78.6508 19.7739 78.5235 19.6748V19.6748Z" fill="black"/>
<path d="M78.5207 17.1885C78.4514 17.2834 78.3617 17.3622 78.2579 17.4193C78.1542 17.4764 78.0389 17.5104 77.9202 17.5189C77.8453 17.5079 77.7737 17.4815 77.7098 17.4416C77.646 17.4017 77.5914 17.3491 77.5496 17.2872C77.5078 17.2253 77.4797 17.1555 77.4671 17.0823C77.4545 17.0091 77.4577 16.9341 77.4766 16.8621C77.5496 16.6459 77.7471 16.0979 78.1528 16.013C78.5586 15.9281 78.894 16.1603 78.8291 16.484C78.7625 16.7325 78.6585 16.97 78.5207 17.1885V17.1885Z" fill="black"/>
<path d="M77.3481 7.39415C77.2786 7.48879 77.1888 7.56731 77.0851 7.62417C76.9813 7.68103 76.8661 7.71483 76.7475 7.72319C76.6728 7.71199 76.6013 7.68556 76.5376 7.64558C76.4739 7.6056 76.4195 7.55297 76.3778 7.49109C76.3361 7.42921 76.3081 7.35946 76.2956 7.28631C76.2831 7.21317 76.2864 7.13827 76.3052 7.06644C76.3783 6.85151 76.5757 6.30355 76.9815 6.21864C77.3873 6.13372 77.7227 6.36458 77.6578 6.68831C77.5906 6.93728 77.4862 7.17513 77.3481 7.39415V7.39415Z" fill="black"/>
<path d="M80.8228 12.9043C80.7731 12.8515 80.7414 12.7848 80.732 12.7135C80.7225 12.6422 80.7358 12.5698 80.7701 12.5063C80.837 12.4031 80.9328 12.321 81.046 12.2697C81.1592 12.2185 81.285 12.2002 81.4085 12.217C81.5437 12.2674 81.8968 12.4001 81.8278 12.6721C81.7996 12.8004 81.7269 12.9152 81.622 12.9967C81.5172 13.0783 81.3867 13.1216 81.2529 13.1192C81.0962 13.0768 80.9499 13.0037 80.8228 12.9043V12.9043Z" fill="black"/>
<path d="M76.5595 26.2834C76.4184 26.1177 76.3459 25.906 76.3566 25.6903C76.408 25.3958 76.7949 25.3772 76.968 25.4966C77.1411 25.616 77.5794 25.9265 77.5996 26.2927C77.6199 26.6589 77.3805 26.8765 77.1154 26.7332C76.911 26.6075 76.7242 26.4563 76.5595 26.2834V26.2834Z" fill="black"/>
<path d="M73.239 17.9354C73.0979 17.7702 73.0255 17.5589 73.0361 17.3437C73.0875 17.0478 73.4743 17.0293 73.6474 17.1487C73.8206 17.2681 74.2588 17.5785 74.2791 17.9447C74.2994 18.3109 74.06 18.5272 73.7949 18.3852C73.5904 18.2597 73.4035 18.1085 73.239 17.9354V17.9354Z" fill="black"/>
<path d="M70.3729 13.3408C70.2316 13.1757 70.1591 12.9643 70.17 12.749C70.2227 12.4532 70.6096 12.4359 70.7813 12.5553C70.9531 12.6747 71.3927 12.9839 71.413 13.3514C71.4333 13.7189 71.1952 13.9338 70.9288 13.7919C70.7242 13.6659 70.5373 13.5142 70.3729 13.3408Z" fill="black"/>
<path d="M71.3738 24.995C71.3239 24.9423 71.2921 24.8756 71.2826 24.8043C71.2731 24.733 71.2866 24.6605 71.321 24.597C71.3879 24.4934 71.4838 24.4109 71.5973 24.3594C71.7107 24.3078 71.8369 24.2895 71.9608 24.3064C72.096 24.3569 72.4491 24.4895 72.3787 24.7615C72.351 24.8901 72.2784 25.0051 72.1735 25.0867C72.0685 25.1684 71.9378 25.2115 71.8039 25.2087C71.6472 25.1669 71.5008 25.0942 71.3738 24.995V24.995Z" fill="black"/>
<path d="M55.6691 27.0198C55.6196 26.9668 55.5881 26.9001 55.5789 26.8288C55.5697 26.7575 55.5833 26.6852 55.6177 26.6217C55.6847 26.5186 55.7804 26.4365 55.8936 26.3852C56.0068 26.3339 56.1326 26.3157 56.2561 26.3325C56.3913 26.3829 56.7444 26.5156 56.6754 26.7876C56.6474 26.916 56.5748 27.0309 56.4699 27.1125C56.365 27.1941 56.2344 27.2373 56.1005 27.2347C55.9435 27.1921 55.7968 27.119 55.6691 27.0198V27.0198Z" fill="black"/>
<path d="M69.119 17.7191C69.0695 17.6661 69.0379 17.5995 69.0285 17.5282C69.019 17.457 69.0322 17.3846 69.0663 17.321C69.1335 17.2178 69.2295 17.1356 69.3429 17.0843C69.4563 17.0331 69.5824 17.0148 69.706 17.0318C69.8413 17.0822 70.1943 17.2149 70.1253 17.4869C70.0969 17.6153 70.0239 17.73 69.9188 17.8116C69.8137 17.8931 69.6831 17.9364 69.5491 17.934C69.3926 17.8912 69.2463 17.8181 69.119 17.7191V17.7191Z" fill="black"/>
<path d="M72.6736 14.0812C72.6236 14.0285 72.5917 13.9617 72.5825 13.8903C72.5733 13.8189 72.5872 13.7464 72.6222 13.6832C72.6891 13.5799 72.7848 13.4976 72.898 13.4461C73.0111 13.3946 73.137 13.376 73.2606 13.3926C73.3958 13.443 73.7489 13.5757 73.6799 13.8477C73.6517 13.9761 73.5791 14.091 73.4743 14.1728C73.3694 14.2546 73.239 14.2981 73.105 14.2961C72.9479 14.2538 72.8011 14.1807 72.6736 14.0812V14.0812Z" fill="black"/>
<path d="M73.4229 31.4817C73.3732 31.4288 73.3415 31.3622 73.332 31.2909C73.3226 31.2196 73.3359 31.1472 73.3702 31.0837C73.4371 30.9805 73.5329 30.8984 73.6461 30.8471C73.7593 30.7959 73.8851 30.7776 74.0086 30.7944C74.1438 30.8448 74.4969 30.9775 74.4279 31.2495C74.3999 31.3779 74.3273 31.4928 74.2224 31.5744C74.1175 31.656 73.9869 31.6992 73.853 31.6966C73.6963 31.6542 73.55 31.5811 73.4229 31.4817V31.4817Z" fill="black"/>
<path d="M81.8156 30.7215C81.7658 30.6688 81.7339 30.6021 81.7244 30.5308C81.715 30.4595 81.7284 30.387 81.7628 30.3235C81.8295 30.22 81.9252 30.1375 82.0384 30.086C82.1517 30.0345 82.2776 30.0161 82.4013 30.0329C82.5365 30.0834 82.8895 30.216 82.8206 30.488C82.7926 30.6165 82.72 30.7313 82.6151 30.8129C82.5102 30.8945 82.3796 30.9377 82.2457 30.9352C82.0889 30.8938 81.9425 30.821 81.8156 30.7215V30.7215Z" fill="black"/>
<path d="M88.5149 18.8707C88.465 18.8179 88.4332 18.7513 88.4237 18.68C88.4143 18.6086 88.4277 18.5362 88.4621 18.4727C88.5294 18.3694 88.6254 18.2872 88.7387 18.2357C88.8521 18.1842 88.9781 18.1656 89.1019 18.1821C89.2372 18.2325 89.5902 18.3652 89.5212 18.6372C89.4932 18.766 89.4204 18.8812 89.3153 18.963C89.2101 19.0449 89.0792 19.0882 88.945 19.0856C88.7884 19.0429 88.6422 18.9698 88.5149 18.8707V18.8707Z" fill="black"/>
<path d="M69.0757 54.517C69.0259 54.4643 68.994 54.3976 68.9846 54.3263C68.9751 54.255 68.9886 54.1825 69.023 54.119C69.0901 54.0157 69.1861 53.9333 69.2995 53.8818C69.4129 53.8303 69.539 53.8118 69.6628 53.8285C69.798 53.8789 70.151 54.0116 70.0821 54.2835C70.0538 54.4121 69.9809 54.527 69.8758 54.6086C69.7706 54.6901 69.6399 54.7333 69.5058 54.7307C69.3492 54.6889 69.2028 54.6162 69.0757 54.517Z" fill="black"/>
<path d="M54.3246 51.2162C54.2748 51.1634 54.2429 51.0967 54.2334 51.0254C54.224 50.9541 54.2374 50.8816 54.2719 50.8181C54.3391 50.7149 54.4351 50.6326 54.5485 50.5812C54.6618 50.5297 54.7878 50.5111 54.9116 50.5276C55.0469 50.578 55.3999 50.7106 55.3309 50.9826C55.303 51.1114 55.2302 51.2266 55.125 51.3085C55.0199 51.3903 54.8889 51.4337 54.7547 51.4311C54.5982 51.3883 54.4519 51.3153 54.3246 51.2162Z" fill="black"/>
<path d="M67.0915 39.0297C67.0417 38.977 67.0098 38.9103 67.0004 38.839C66.9909 38.7676 67.0043 38.6952 67.0388 38.6317C67.1057 38.5281 67.2016 38.4456 67.315 38.394C67.4285 38.3425 67.5547 38.3241 67.6785 38.3411C67.8138 38.3915 68.1668 38.5242 68.0978 38.7962C68.0696 38.9247 67.9967 39.0397 67.8916 39.1212C67.7864 39.2028 67.6556 39.246 67.5216 39.2433C67.3649 39.2015 67.2186 39.1289 67.0915 39.0297Z" fill="black"/>
<path d="M63.8765 30.2557C63.8268 30.2028 63.7952 30.1361 63.786 30.0647C63.7768 29.9934 63.7904 29.9211 63.8251 29.8577C63.8917 29.7542 63.9874 29.6717 64.1006 29.6202C64.2139 29.5687 64.3398 29.5502 64.4635 29.5671C64.5987 29.6175 64.9517 29.7502 64.8828 30.0222C64.8548 30.1506 64.7822 30.2655 64.6773 30.3471C64.5724 30.4287 64.4418 30.4719 64.3079 30.4693C64.1507 30.4278 64.0039 30.3551 63.8765 30.2557V30.2557Z" fill="black"/>
<path d="M62.2074 35.6557C62.1575 35.603 62.1257 35.5363 62.1162 35.465C62.1068 35.3936 62.1202 35.3212 62.1546 35.2577C62.2218 35.1543 62.3177 35.072 62.4311 35.0205C62.5445 34.969 62.6706 34.9505 62.7944 34.9671C62.9297 35.0175 63.2827 35.1502 63.2137 35.4222C63.1855 35.5509 63.1126 35.666 63.0075 35.7478C62.9024 35.8295 62.7717 35.873 62.6375 35.8707C62.481 35.8279 62.3347 35.7548 62.2074 35.6557V35.6557Z" fill="black"/>
<path d="M61.454 46.8975C61.4042 46.8448 61.3723 46.7781 61.3629 46.7068C61.3534 46.6354 61.3668 46.563 61.4013 46.4995C61.4683 46.396 61.5642 46.3136 61.6777 46.2621C61.7911 46.2105 61.9172 46.1921 62.041 46.2089C62.1763 46.2594 62.5293 46.392 62.459 46.664C62.4313 46.7926 62.3587 46.9076 62.2537 46.9892C62.1488 47.0708 62.018 47.114 61.8841 47.1111C61.7274 47.0693 61.5811 46.9967 61.454 46.8975V46.8975Z" fill="black"/>
<path d="M58.8692 51.1922C58.8194 51.1394 58.7875 51.0728 58.7781 51.0015C58.7686 50.9301 58.782 50.8577 58.8165 50.7942C58.8835 50.6907 58.9795 50.6083 59.0929 50.5568C59.2063 50.5052 59.3324 50.4868 59.4563 50.5036C59.5915 50.554 59.9445 50.6867 59.8742 50.9587C59.8465 51.0872 59.7739 51.2023 59.6689 51.2839C59.564 51.3655 59.4333 51.4086 59.2994 51.4058C59.1427 51.364 58.9963 51.2913 58.8692 51.1922V51.1922Z" fill="black"/>
<path d="M74.8715 37.7136C74.9101 37.8014 74.9249 37.8975 74.9145 37.9926C74.9041 38.0877 74.8688 38.1785 74.812 38.2562C74.7102 38.3534 74.5767 38.412 74.4351 38.4217C74.2934 38.4314 74.1529 38.3916 74.0383 38.3093C73.9031 38.1767 73.5663 37.8317 73.7191 37.5133C73.7446 37.4427 73.7854 37.3784 73.8385 37.3247C73.8916 37.2709 73.9559 37.2291 74.027 37.2019C74.0981 37.1747 74.1743 37.1628 74.2505 37.1671C74.3266 37.1714 74.401 37.1917 74.4684 37.2267C74.6304 37.365 74.7667 37.5298 74.8715 37.7136Z" fill="black"/>
<path d="M61.9301 22.5898C61.9687 22.6774 61.9834 22.7734 61.9727 22.8683C61.962 22.9632 61.9264 23.0538 61.8693 23.1311C61.7681 23.2288 61.6347 23.2879 61.4931 23.2976C61.3515 23.3074 61.211 23.2671 61.0969 23.1842C60.9617 23.0515 60.6249 22.7065 60.7777 22.3881C60.8033 22.3176 60.844 22.2533 60.8971 22.1995C60.9502 22.1458 61.0144 22.1038 61.0855 22.0765C61.1565 22.0492 61.2327 22.0372 61.3089 22.0413C61.3851 22.0454 61.4595 22.0655 61.5271 22.1002C61.6893 22.2393 61.8256 22.4049 61.9301 22.5898V22.5898Z" fill="black"/>
<path d="M87.2813 12.0578C87.3452 12.1888 87.3747 12.3334 87.3672 12.4785C87.3596 12.6235 87.3152 12.7644 87.238 12.8884C87.0976 13.0415 86.9042 13.1381 86.6953 13.1595C86.4864 13.1808 86.2769 13.1253 86.1073 13.0038C85.899 12.8061 85.3729 12.294 85.5663 11.8097C85.5947 11.7015 85.6477 11.6011 85.7212 11.5158C85.7948 11.4305 85.887 11.3626 85.991 11.3172C86.0951 11.2718 86.2082 11.25 86.322 11.2535C86.4358 11.257 86.5474 11.2857 86.6483 11.3374C86.8988 11.5412 87.1127 11.7847 87.2813 12.0578V12.0578Z" fill="black"/>
<path d="M72.4761 55.7044C72.4262 55.6517 72.3944 55.585 72.3849 55.5137C72.3755 55.4424 72.3889 55.3699 72.4234 55.3064C72.4906 55.2031 72.5866 55.1209 72.7 55.0694C72.8133 55.018 72.9393 54.9994 73.0631 55.0159C73.1984 55.0663 73.5514 55.1989 73.4811 55.4723C73.4531 55.6007 73.3804 55.7156 73.2755 55.7972C73.1706 55.8788 73.0401 55.922 72.9062 55.9194C72.7497 55.8766 72.6034 55.8035 72.4761 55.7044V55.7044Z" fill="black"/>
<path d="M75.1758 57.9495C75.1262 57.8966 75.0946 57.8298 75.0854 57.7585C75.0762 57.6872 75.0898 57.6148 75.1244 57.5514C75.1914 57.4483 75.2872 57.3662 75.4004 57.3149C75.5135 57.2636 75.6394 57.2453 75.7628 57.2622C75.8981 57.3126 76.2511 57.4453 76.1821 57.7173C76.154 57.8456 76.0812 57.9603 75.9764 58.0419C75.8715 58.1234 75.7411 58.1667 75.6073 58.1644C75.4503 58.1218 75.3035 58.0487 75.1758 57.9495V57.9495Z" fill="black"/>
<path d="M75.7317 51.1921C75.6819 51.1393 75.65 51.0727 75.6406 51.0013C75.6311 50.93 75.6446 50.8576 75.679 50.7941C75.7461 50.6907 75.8421 50.6084 75.9555 50.5569C76.0689 50.5054 76.1949 50.4868 76.3187 50.5035C76.454 50.5539 76.807 50.6866 76.7367 50.9586C76.709 51.0871 76.6364 51.2021 76.5314 51.2838C76.4265 51.3654 76.2958 51.4085 76.1619 51.4057C76.0052 51.3639 75.8588 51.2912 75.7317 51.1921V51.1921Z" fill="black"/>
<path d="M81.9996 16.0753C82.6345 16.0753 83.1492 15.5704 83.1492 14.9476C83.1492 14.3247 82.6345 13.8198 81.9996 13.8198C81.3646 13.8198 80.8499 14.3247 80.8499 14.9476C80.8499 15.5704 81.3646 16.0753 81.9996 16.0753Z" fill="black"/>
<path d="M11.954 80.925C12.8443 81.4114 13.575 82.1366 14.0603 83.0157C14.5456 83.8947 14.7655 84.8912 14.6943 85.8885C14.5077 89.7878 11.5117 92.0858 6.6303 92.0858C3.89405 92.0858 1.32957 91.3946 0.216406 90.2681C-0.186164 88.5446 0.0713903 86.736 0.940036 85.1866H1.21055C1.14265 85.9441 1.24489 86.707 1.51005 87.4216C1.77521 88.1362 2.19685 88.785 2.74527 89.3225C3.2937 89.8599 3.95558 90.2729 4.6843 90.5324C5.41301 90.7918 6.19085 90.8914 6.96303 90.824C9.61678 90.7776 11.1817 89.3341 11.179 87.4594C11.179 86.2454 10.3796 85.4347 8.74436 84.368L3.42741 80.9064C2.46479 80.3825 1.67705 79.5968 1.15897 78.644C0.640893 77.6911 0.414564 76.6117 0.507214 75.5357C0.766908 72.4363 3.0771 70.2949 6.93192 70.2949C8.32145 70.326 9.70837 70.4283 11.087 70.6014H13.0036L12.5978 75.0023H12.3043C12.3043 72.9233 10.5839 71.5527 8.00316 71.5527C5.59964 71.5527 4.0807 72.8238 4.00901 74.4318C3.93462 75.61 4.85708 76.3994 6.13526 77.218L11.954 80.925Z" fill="black"/>
<path d="M57.5167 93.942C57.2462 98.6122 50.3995 102.504 41.3048 98.0125C36.8021 95.7676 33.2489 92.4401 29.3941 92.0858C22.17 92.0261 17.5712 87.8614 17.5712 81.1904C17.5712 74.4636 22.2484 70.2949 29.5766 70.2949C36.9049 70.2949 41.5631 74.4636 41.5631 81.1904C41.7035 83.5349 41.0041 85.8538 39.5859 87.746C38.1677 89.6382 36.1199 90.9847 33.7967 91.5524C37.0119 92.3089 40.1565 93.3297 43.197 94.604C48.702 96.6698 53.9581 96.5199 57.3449 93.8265L57.5167 93.942ZM29.5766 90.824C33.8792 90.824 36.5748 87.133 36.5748 81.1877C36.5748 75.2425 33.8792 71.5514 29.5766 71.5514C25.2741 71.5514 22.5582 75.2425 22.5582 81.1877C22.5582 87.133 25.2755 90.824 29.5766 90.824Z" fill="black"/>
<path d="M66.6682 70.7143V71.0128H66.1704C65.7675 70.998 65.3744 71.1371 65.0739 71.401C64.7734 71.6648 64.589 72.0327 64.5595 72.4271V84.0815C64.5595 89.0012 61.2687 92.0859 55.7786 92.0859C49.243 92.0859 45.8332 89.0197 45.8332 84.1346V72.4948C45.8278 72.2931 45.7816 72.0946 45.6973 71.9105C45.6131 71.7265 45.4923 71.5608 45.3422 71.4229C45.1921 71.285 45.0156 71.1778 44.8228 71.1074C44.6301 71.037 44.4251 71.0048 44.2196 71.0128H43.7218V70.7143H52.5135V71.0128H52.0158C51.6087 70.9972 51.2118 71.1394 50.9106 71.4084C50.6095 71.6775 50.4283 72.052 50.4062 72.451V83.8758C50.4062 88.1335 52.6799 90.775 56.3305 90.775C60.0582 90.775 62.3819 88.2767 62.3913 84.2566V72.4484C62.3689 72.0488 62.1874 71.6738 61.8858 71.4043C61.5842 71.1348 61.1868 70.9923 60.7791 71.0075H60.2813V70.709L66.6682 70.7143Z" fill="black"/>
<path d="M77.739 91.6664H68.4684V91.3679H68.8553C69.3675 91.3677 69.8592 91.1703 70.2246 90.8182C70.5901 90.4662 70.8002 89.9876 70.8097 89.4852V72.8807C70.797 72.3804 70.5856 71.9048 70.2204 71.5553C69.8553 71.2058 69.3654 71.0101 68.8553 71.0099H68.4698V70.7114H77.739V71.0099H77.3521C76.8442 71.01 76.3563 71.2039 75.9915 71.5506C75.6268 71.8972 75.4138 72.3695 75.3977 72.8674V89.4786C75.4072 89.9812 75.6175 90.46 75.9832 90.8121C76.349 91.1642 76.841 91.3614 77.3535 91.3613H77.739V91.6664Z" fill="black"/>
<path d="M90.8129 70.7129C94.5122 70.7129 98.0708 72.1883 98.0708 76.3583C98.1426 77.7543 97.6639 79.1239 96.7339 80.183C95.8038 81.242 94.4939 81.9092 93.0757 82.0462C94.3776 82.5781 95.4689 83.509 96.1867 84.6997C96.28 84.8443 98.11 87.6916 99.2597 89.098C100.576 90.7418 101.445 91.3442 103.036 91.3681V91.6679H100.06C96.7223 91.6679 94.2944 90.9594 92.8918 88.5646C92.1492 87.2962 90.7737 84.3322 90.349 83.4379C89.7565 82.1881 89.0762 81.5539 88.2836 81.4213V81.1387H89.2155C90.1852 81.148 91.1223 80.7959 91.8376 80.1537C92.5529 79.5114 92.993 78.6267 93.069 77.6784C93.164 77.201 93.2017 76.7143 93.1813 76.2283C93.0595 73.3664 91.5866 72.0848 89.582 72.037C88.7705 72.0025 87.6506 72.037 87.2678 72.0277V89.4894C87.2774 89.9925 87.4883 90.4718 87.8549 90.8238C88.2216 91.1757 88.7147 91.3722 89.2277 91.3707H89.6077V91.6706H80.3291V91.3707H80.7146C81.224 91.3709 81.7134 91.1758 82.0783 90.827C82.4431 90.4783 82.6547 90.0035 82.6677 89.5039V72.8914C82.6585 72.3899 82.449 71.912 82.0843 71.5604C81.7195 71.2088 81.2287 71.0117 80.7173 71.0114H80.3278V70.7142L90.8129 70.7129Z" fill="black"/>
<path d="M113.243 70.7129C116.942 70.7129 120.5 72.1883 120.5 76.3583C120.572 77.7545 120.093 79.1243 119.163 80.1834C118.233 81.2424 116.922 81.9095 115.504 82.0462C116.806 82.5779 117.897 83.5088 118.615 84.6997C118.708 84.8443 120.538 87.6916 121.688 89.098C123.004 90.7418 123.874 91.3442 125.464 91.3681V91.6679H122.489C119.151 91.6679 116.723 90.9594 115.32 88.5646C114.578 87.2962 113.202 84.3322 112.777 83.4379C112.185 82.1881 111.503 81.5539 110.712 81.4213V81.1387H111.644C112.613 81.1479 113.55 80.7959 114.265 80.1536C114.98 79.5112 115.42 78.6266 115.496 77.6784C115.592 77.2012 115.63 76.7144 115.61 76.2283C115.488 73.3664 114.015 72.0848 112.01 72.037C111.199 72.0025 110.079 72.037 109.696 72.0277V89.4894C109.706 89.9925 109.917 90.4718 110.283 90.8238C110.65 91.1757 111.143 91.3722 111.656 91.3707H112.036V91.6706H102.757V91.3707H103.144C103.654 91.3709 104.143 91.1758 104.508 90.827C104.873 90.4783 105.084 90.0035 105.097 89.5039V72.8914C105.088 72.3897 104.878 71.9115 104.513 71.5599C104.148 71.2083 103.657 71.0113 103.146 71.0114H102.757V70.7142L113.243 70.7129Z" fill="black"/>
<path d="M62.5036 95.4997C62.4049 95.1521 62.2331 94.7594 61.7556 94.7594C61.6742 94.7536 61.5924 94.7646 61.5156 94.7919C61.4388 94.8191 61.3687 94.8619 61.3099 94.9175C61.2511 94.973 61.2048 95.0402 61.1742 95.1144C61.1436 95.1887 61.1292 95.2684 61.1321 95.3485C61.1321 95.7293 61.3932 95.915 61.853 96.1339C62.3129 96.3529 62.8309 96.6195 62.8309 97.2153C62.8215 97.3676 62.7805 97.5165 62.7103 97.6528C62.6402 97.7891 62.5424 97.9098 62.423 98.0077C62.3035 98.1056 62.165 98.1785 62.0158 98.2221C61.8667 98.2656 61.71 98.2787 61.5555 98.2607C61.3628 98.262 61.1713 98.232 60.9887 98.1718C60.8923 98.1411 60.7986 98.1025 60.7087 98.0564C60.6417 97.7719 60.5902 97.484 60.5546 97.194L60.7236 97.1449C60.8183 97.4899 61.0942 98.0564 61.6704 98.0564C61.7578 98.0641 61.8459 98.0529 61.9284 98.0236C62.0109 97.9944 62.0859 97.9478 62.1482 97.8871C62.2104 97.8265 62.2584 97.7532 62.2887 97.6724C62.319 97.5916 62.331 97.5053 62.3237 97.4196C62.3237 97.0215 62.0221 96.8411 61.592 96.6235C61.1984 96.4298 60.6587 96.1605 60.6587 95.5621C60.6646 95.4191 60.7006 95.2788 60.7643 95.15C60.8281 95.0213 60.9183 94.9068 61.0293 94.8139C61.1403 94.7209 61.2697 94.6515 61.4094 94.61C61.549 94.5684 61.6959 94.5556 61.8409 94.5723C62.0907 94.5794 62.338 94.6241 62.5739 94.705C62.5956 94.8974 62.6226 95.1203 62.6713 95.4759L62.5036 95.4997Z" fill="black"/>
<path d="M68.5793 98.1757V98.0192C68.931 97.9714 68.9851 97.9237 68.904 97.7047C68.8228 97.4858 68.7241 97.2191 68.6023 96.9087H67.385C67.2904 97.1568 67.2146 97.3677 67.1429 97.5827C67.0212 97.913 67.0672 97.9807 67.4932 98.0192V98.1757H66.2475V98.0192C66.6141 97.9635 66.6925 97.9276 66.8927 97.4447L68.0802 94.6187L68.2764 94.5696C68.6375 95.5302 69.0014 96.4934 69.376 97.4447C69.5559 97.9237 69.6357 97.9754 70.0023 98.0192V98.1757H68.5793ZM68.0248 95.3152H68.0126C67.8314 95.7623 67.6542 96.2267 67.4838 96.6632H68.5185L68.0248 95.3152Z" fill="black"/>
<path d="M76.2254 97.3016C76.1876 97.486 76.0699 98.0088 76.0131 98.176H73.4067V98.0194C73.8909 97.9862 73.9396 97.9491 73.9396 97.4754V95.3526C73.9396 94.8816 73.9017 94.8484 73.4337 94.8219V94.6587H74.9635V94.8219C74.5185 94.8511 74.4644 94.8803 74.4644 95.3526V97.4582C74.4644 97.754 74.4914 97.8562 74.5996 97.9146C74.7675 97.9741 74.9465 97.9976 75.1244 97.9836C75.2356 98.0001 75.3491 97.9931 75.4574 97.9632C75.5656 97.9332 75.6661 97.8809 75.752 97.8098C75.8915 97.6528 75.9956 97.4688 76.0577 97.2698L76.2254 97.3016Z" fill="black"/>
<path d="M81.6032 94.5698C81.8489 94.5621 82.0936 94.603 82.3229 94.6899C82.5522 94.7767 82.7613 94.9079 82.9379 95.0756C83.1145 95.2432 83.255 95.444 83.351 95.6659C83.447 95.8879 83.4966 96.1264 83.4969 96.3675C83.504 96.6212 83.4577 96.8737 83.3609 97.109C83.264 97.3444 83.1187 97.5576 82.9339 97.7353C82.7492 97.9131 82.5291 98.0515 82.2873 98.1419C82.0455 98.2323 81.7873 98.2728 81.5289 98.2608C81.2811 98.2692 81.0341 98.2285 80.8027 98.1412C80.5713 98.0538 80.3602 97.9216 80.182 97.7524C80.0039 97.5832 79.8624 97.3806 79.7659 97.1566C79.6693 96.9325 79.6199 96.6917 79.6204 96.4485C79.6172 96.1956 79.6667 95.9447 79.7658 95.7112C79.8649 95.4777 80.0116 95.2666 80.1969 95.0907C80.3822 94.9148 80.6021 94.7778 80.8432 94.6883C81.0844 94.5987 81.3416 94.5584 81.5992 94.5698H81.6032ZM81.4788 94.7741C80.8445 94.7741 80.2399 95.2822 80.2399 96.3078C80.2399 97.3042 80.8404 98.0565 81.6533 98.0565C82.2876 98.0565 82.8706 97.5603 82.8706 96.5122C82.8706 95.3738 82.2281 94.7741 81.4842 94.7741H81.4788Z" fill="black"/>
<path d="M90.9455 94.8151C90.6317 94.8297 90.495 94.8921 90.4693 95.1402C90.4412 95.449 90.43 95.759 90.4355 96.0689V98.2369H90.2543L87.7723 95.4122H87.7655V96.7389C87.7616 97.0437 87.7742 97.3484 87.8034 97.6518C87.8291 97.933 87.9576 97.9994 88.3445 98.0286V98.1851H86.9919V98.0286C87.3165 98.0073 87.4599 97.937 87.4869 97.6664C87.522 97.358 87.5369 97.0478 87.5316 96.7376V95.5754C87.5316 95.1773 87.5126 95.1482 87.4112 95.0195C87.348 94.9514 87.2699 94.8984 87.1827 94.8643C87.0955 94.8303 87.0016 94.8162 86.908 94.8231V94.6599H87.7777L90.184 97.3347H90.1988V96.0716C90.2022 95.7695 90.1896 95.4675 90.161 95.1667C90.1353 94.912 90.0027 94.8417 89.5983 94.8231V94.6599H90.9509L90.9455 94.8151Z" fill="black"/>
<path d="M102.883 96.0119C102.745 96.0115 102.61 96.0484 102.492 96.1186C102.374 96.1889 102.278 96.2897 102.215 96.4099C102.065 96.6142 101.924 96.8358 101.728 97.1184C102.086 97.4429 102.399 97.8112 102.66 98.2143L102.63 98.266C102.37 98.2609 102.115 98.1866 101.894 98.0511C101.823 97.9768 101.587 97.7287 101.404 97.5403C101.28 97.7425 101.108 97.9122 100.902 98.0349C100.697 98.1576 100.464 98.2296 100.224 98.2448C100.083 98.2543 99.9409 98.236 99.8069 98.1909C99.6729 98.1458 99.5495 98.0749 99.4438 97.9823C99.3382 97.8897 99.2525 97.7773 99.1919 97.6517C99.1312 97.5261 99.0968 97.3899 99.0906 97.2511C99.0906 96.7549 99.4382 96.5545 99.9292 96.2215C99.8086 96.1328 99.7097 96.019 99.6395 95.8882C99.5693 95.7574 99.5297 95.6129 99.5235 95.4652C99.5337 95.2277 99.6386 95.0036 99.8158 94.8413C99.9929 94.6789 100.228 94.5914 100.47 94.5975C100.577 94.5914 100.685 94.6062 100.786 94.641C100.887 94.6758 100.98 94.73 101.06 94.8003C101.14 94.8706 101.204 94.9557 101.25 95.0507C101.296 95.1457 101.323 95.2487 101.328 95.3538C101.329 95.4457 101.308 95.5366 101.266 95.6191C101.225 95.7016 101.165 95.7734 101.09 95.8288C100.943 95.9441 100.791 96.0517 100.633 96.1512C100.822 96.3024 101.218 96.6248 101.579 96.9764C101.711 96.7864 101.823 96.5842 101.915 96.3728C102.016 96.1286 101.968 96.0583 101.567 96.0066V95.85H102.874L102.883 96.0119ZM100.395 97.8574C100.565 97.8473 100.731 97.8005 100.881 97.7203C101.032 97.64 101.162 97.5283 101.263 97.393C100.897 97.0156 100.5 96.6678 100.077 96.3529C99.9411 96.4256 99.8269 96.5313 99.745 96.6598C99.663 96.7882 99.6161 96.9352 99.6087 97.0866C99.6057 97.1882 99.6239 97.2894 99.662 97.384C99.7002 97.4786 99.7576 97.5646 99.8308 97.6367C99.9039 97.7088 99.9912 97.7656 100.087 97.8035C100.184 97.8415 100.287 97.8598 100.39 97.8574H100.395ZM100.417 94.7926C100.352 94.797 100.288 94.8144 100.229 94.8438C100.171 94.8732 100.119 94.9139 100.077 94.9635C100.035 95.0131 100.003 95.0705 99.9843 95.1324C99.9655 95.1942 99.9596 95.2592 99.9671 95.3233C99.9671 95.6046 100.138 95.7903 100.485 96.0424C100.607 95.9714 100.708 95.8712 100.779 95.7511C100.85 95.6311 100.888 95.4952 100.891 95.3564C100.899 95.2893 100.893 95.2212 100.874 95.1562C100.855 95.0912 100.824 95.0304 100.781 94.9775C100.738 94.9245 100.685 94.8803 100.625 94.8474C100.564 94.8146 100.498 94.7937 100.43 94.7859L100.417 94.7926Z" fill="black"/>
<path d="M112.734 95.4997C112.637 95.1521 112.463 94.7594 111.987 94.7594C111.906 94.7536 111.824 94.7646 111.747 94.7919C111.671 94.8191 111.6 94.8619 111.542 94.9175C111.483 94.973 111.437 95.0402 111.406 95.1144C111.375 95.1887 111.361 95.2684 111.364 95.3485C111.364 95.7293 111.625 95.915 112.085 96.1339C112.545 96.3529 113.063 96.6195 113.063 97.2153C113.053 97.3678 113.012 97.5168 112.942 97.6531C112.872 97.7895 112.774 97.9104 112.654 98.0083C112.535 98.1062 112.396 98.1791 112.247 98.2225C112.097 98.2659 111.94 98.2789 111.786 98.2607C111.594 98.2619 111.403 98.2319 111.22 98.1718C111.124 98.1411 111.03 98.1025 110.94 98.0564C110.873 97.772 110.821 97.4841 110.786 97.194L110.955 97.1449C111.05 97.4899 111.326 98.0564 111.902 98.0564C111.99 98.0641 112.078 98.0529 112.16 98.0236C112.243 97.9944 112.318 97.9478 112.38 97.8871C112.442 97.8265 112.49 97.7532 112.52 97.6724C112.551 97.5916 112.563 97.5053 112.555 97.4196C112.555 97.0215 112.254 96.8411 111.822 96.6235C111.43 96.4298 110.89 96.1605 110.89 95.5621C110.896 95.4191 110.932 95.2788 110.996 95.15C111.06 95.0213 111.15 94.9068 111.261 94.8139C111.372 94.7209 111.501 94.6515 111.641 94.61C111.781 94.5684 111.928 94.5556 112.073 94.5723C112.322 94.5794 112.57 94.6241 112.806 94.705C112.827 94.8974 112.854 95.1203 112.903 95.4759L112.734 95.4997Z" fill="black"/>
<path d="M118.001 94.6518C118.336 94.6273 118.67 94.7062 118.957 94.8774C119.079 94.9662 119.176 95.083 119.241 95.2174C119.305 95.3519 119.335 95.4998 119.328 95.6483C119.327 95.9378 119.211 96.2157 119.005 96.4232C118.799 96.6307 118.519 96.7515 118.224 96.7601C118.134 96.7696 118.044 96.7718 117.954 96.7667L117.532 96.6632V97.4898C117.532 97.9529 117.58 97.982 118.094 98.0205V98.1771H116.521V98.0205C116.972 97.9834 117.02 97.9396 117.02 97.4898V95.3484C117.02 94.8628 116.972 94.8402 116.552 94.8177V94.6545L118.001 94.6518ZM117.537 96.4748C117.668 96.5185 117.805 96.5409 117.943 96.5412C118.163 96.5228 118.369 96.4227 118.517 96.2613C118.665 96.0998 118.745 95.8891 118.741 95.6719C118.737 95.4546 118.648 95.2471 118.494 95.0914C118.339 94.9358 118.13 94.8436 117.909 94.8336C117.801 94.8236 117.693 94.8468 117.599 94.9C117.561 94.9371 117.54 94.9968 117.54 95.1481L117.537 96.4748Z" fill="black"/>
<path d="M124.573 98.1757V98.0192C124.925 97.9714 124.979 97.9237 124.898 97.7047C124.816 97.4858 124.716 97.2191 124.596 96.9087H123.379C123.284 97.1568 123.208 97.3677 123.138 97.5827C123.016 97.913 123.062 97.9807 123.488 98.0192V98.1757H122.241V98.0192C122.608 97.9635 122.688 97.9276 122.888 97.4447L124.074 94.6187L124.27 94.5696C124.633 95.5302 124.996 96.4934 125.37 97.4447C125.551 97.9237 125.629 97.9754 125.996 98.0192V98.1757H124.573ZM124.017 95.3152H124.006C123.825 95.7623 123.648 96.2267 123.477 96.6632H124.512L124.017 95.3152Z" fill="black"/>
</g>
<defs>
<clipPath id="clip0_1_731">
<rect width="126" height="100" fill="white"/>
</clipPath>
</defs>
</svg>
